<svg version="1.1" id="Layer_1" xmlns="http://www.w3.org/2000/svg" xmlns:xlink="http://www.w3.org/1999/xlink" x="0px" y="0px"
	 width="100%" viewBox="0 0 496 496" enable-background="new 0 0 496 496" xml:space="preserve">
<path fill="#000000" opacity="1.000000" stroke="none" 
	d="
M268.000000,497.000000 
	C259.979095,497.000000 251.958191,497.000000 243.286987,496.722595 
	C236.765762,493.371368 230.875076,490.334595 225.027969,487.216125 
	C211.427383,479.962311 197.879669,472.608826 184.249207,465.411865 
	C174.083176,460.044128 163.884903,454.686859 153.834656,449.158325 
	C137.608124,440.232391 121.285698,431.478485 105.021545,422.621613 
	C92.281731,415.683960 79.293159,409.200623 66.595360,402.188965 
	C54.881817,395.720825 43.078522,389.441467 31.177774,383.327698 
	C25.435896,380.377899 21.399397,376.768188 21.431623,368.875214 
	C21.750597,290.751038 21.766289,212.624405 21.427088,134.500366 
	C21.389063,125.742805 25.398064,121.597290 32.282101,118.140602 
	C43.646069,112.434418 54.878483,106.460739 66.086395,100.450714 
	C78.600128,93.740463 90.984299,86.788567 103.499184,80.080505 
	C116.599625,73.058601 129.821152,66.262764 142.930023,59.256378 
	C158.555847,50.904755 174.158920,42.508713 189.696045,33.993572 
	C204.017349,26.144753 218.393127,18.403423 232.803299,10.720574 
	C238.584549,7.638268 244.819672,5.199649 250.000000,1.000000 
	C253.361282,1.000000 256.722565,1.000000 260.712921,1.288960 
	C270.322510,7.811547 280.334747,12.236490 289.911774,17.371775 
	C297.160095,21.258377 304.334106,25.326368 311.657623,29.099619 
	C321.764709,34.307037 331.361938,40.548931 341.630798,45.385242 
	C352.396423,50.455471 362.300873,57.039288 373.149963,62.018375 
	C380.363525,65.328949 387.278229,69.764450 394.345856,73.647263 
	C410.711029,82.637955 427.212555,91.380737 443.666473,100.209740 
	C455.013092,106.298233 466.140137,112.865326 477.807587,118.262360 
	C485.660492,121.894913 488.601288,126.646866 488.561157,135.450699 
	C488.224487,209.254913 488.370514,283.061310 488.369995,356.867035 
	C488.369965,361.865143 488.464905,366.866241 488.321838,371.860382 
	C488.212097,375.691803 486.901489,378.971619 483.240021,380.929932 
	C469.154388,388.463593 455.087860,396.033020 441.015472,403.591370 
	C433.316956,407.726257 425.615967,411.856537 417.925018,416.005463 
	C408.346771,421.172455 398.940918,426.691528 389.165405,431.452484 
	C375.499542,438.108154 362.281586,445.619751 348.961823,452.868103 
	C330.085785,463.140045 310.896942,472.845459 292.258118,483.556915 
	C284.242615,488.163300 275.730652,491.876953 268.000000,497.000000 
M381.862152,272.616150 
	C378.815338,268.444885 373.866608,266.202271 371.039551,261.717407 
	C369.897095,259.904938 367.982513,260.619781 367.114136,262.500702 
	C365.246033,266.546967 363.466492,270.637817 361.779785,274.763214 
	C359.920807,279.310150 358.545349,284.085419 356.359741,288.461823 
	C351.548767,298.095032 347.789642,308.166748 343.705750,318.092316 
	C341.432343,323.617676 337.412842,327.577423 332.843750,326.981476 
	C326.472992,326.150482 323.631775,322.557648 323.627930,315.208740 
	C323.613739,288.048553 323.638916,260.888306 323.577606,233.728241 
	C323.572968,231.674683 324.304382,229.395538 322.361450,227.257263 
	C317.008453,228.803558 312.213318,231.769562 307.431244,234.518143 
	C296.801727,240.627655 285.952667,246.281982 274.940796,251.652054 
	C268.333344,254.874268 264.002350,258.491730 264.075897,267.595856 
	C264.614227,334.242340 264.363556,400.895142 264.411346,467.545898 
	C264.412811,469.603027 263.644806,471.884338 265.299347,473.662384 
	C266.849396,474.185028 268.003571,473.476074 269.168304,472.845490 
	C284.432831,464.581573 299.700836,456.324127 314.957428,448.045624 
	C330.530579,439.595245 345.950745,430.849091 361.697021,422.735291 
	C378.783783,413.930847 395.501587,404.460114 412.474457,395.457428 
	C422.104370,390.349518 431.605347,385.015015 441.169495,379.803741 
	C448.820770,375.634735 456.605896,371.647003 464.347748,367.609344 
	C467.715485,365.852936 468.718567,363.312653 468.712402,359.524597 
	C468.600861,291.041107 468.636475,222.557343 468.596619,154.073669 
	C468.595612,152.329559 469.207855,150.413391 467.893280,148.838409 
	C467.501648,148.799515 467.108856,148.629974 466.876007,148.755997 
	C448.744202,158.568420 430.704987,168.556824 412.443359,178.120636 
	C408.340485,180.269363 407.271942,182.846512 407.296661,187.146774 
	C407.453644,214.472702 407.376617,241.799973 407.373016,269.126801 
	C407.372772,270.792816 407.422455,272.464386 407.308563,274.123749 
	C406.973785,279.002930 403.893005,282.161407 399.829803,283.875793 
	C396.116852,285.442230 392.924988,283.613068 390.237457,280.563446 
	C387.858398,277.863861 384.959045,275.622742 381.862152,272.616150 
M244.634247,439.500153 
	C244.636124,381.526367 244.638275,323.552582 244.638611,265.578796 
	C244.638626,263.746368 244.599030,261.913727 244.615982,260.081543 
	C244.632660,258.278046 244.051636,256.827820 242.386551,255.934387 
	C230.751831,249.691635 219.113617,243.455353 207.487869,237.195953 
	C200.059113,233.196274 192.644608,229.169998 185.232864,225.138794 
	C175.235916,219.701462 165.375717,213.994354 155.221298,208.869736 
	C144.167328,203.291107 133.336838,197.320633 122.474991,191.394058 
	C112.474388,185.937363 102.395447,180.624390 92.362358,175.227036 
	C81.298698,169.275330 70.324829,163.150330 59.157970,157.399628 
	C53.873970,154.678452 49.107353,150.642349 42.374710,149.625824 
	C42.374710,151.990723 42.374729,153.798035 42.374706,155.605347 
	C42.373890,222.908371 42.372879,290.211395 42.373478,357.514435 
	C42.373489,359.013672 42.355350,360.514252 42.409542,362.011902 
	C42.515640,364.944031 44.093628,367.078217 46.535721,368.382019 
	C56.872215,373.900543 67.301353,379.245453 77.641922,384.756470 
	C90.485123,391.601288 103.420334,398.289581 116.229080,405.170502 
	C126.923424,410.915558 137.616577,416.720306 148.285812,422.539673 
	C163.395996,430.781281 178.794479,438.505463 193.766174,446.986694 
	C208.910187,455.565460 224.424652,463.434998 239.640442,471.862244 
	C243.523010,474.012604 244.672668,473.118805 244.642868,468.987183 
	C244.574371,459.491974 244.629089,449.995911 244.634247,439.500153 
M277.088074,227.429428 
	C287.730164,222.163193 298.171661,216.534714 308.233704,210.352478 
	C302.401123,205.109024 294.943604,202.796829 288.610992,198.558044 
	C283.811707,195.345627 278.848480,192.326111 273.736511,189.643143 
	C261.025665,182.972046 248.842712,175.395844 236.397827,168.270508 
	C227.082474,162.936996 217.882858,157.374359 208.534210,152.140549 
	C197.868027,146.169113 187.395355,139.861740 176.697342,133.947342 
	C164.428528,127.164528 152.138565,120.387177 140.206284,113.041374 
	C133.563782,108.952095 126.264389,105.954887 120.020660,101.425163 
	C115.724098,98.308083 112.548775,98.436722 108.335999,100.735428 
	C94.280548,108.404823 80.004601,115.677040 66.065544,123.548409 
	C62.106121,125.784279 57.532776,127.407677 53.856789,131.065872 
	C60.104687,134.541275 65.625351,137.775696 71.291496,140.731201 
	C84.640190,147.693970 97.935585,154.772720 111.207787,161.863220 
	C121.647858,167.440674 132.109329,173.027374 142.475006,178.767761 
	C152.849564,184.513077 163.151062,190.414536 173.737961,195.744263 
	C181.699783,199.752441 189.409943,204.184189 197.247452,208.399475 
	C204.067810,212.067673 211.023941,215.482895 217.858475,219.125473 
	C229.662857,225.416809 241.431229,231.776184 253.180893,238.169144 
	C254.604736,238.943848 255.763855,239.342392 257.326324,238.444794 
	C263.652039,234.810822 270.041718,231.288162 277.088074,227.429428 
M292.363495,99.017441 
	C301.407318,104.097061 310.504425,109.084625 319.481903,114.278893 
	C331.531494,121.250626 343.443481,128.460358 355.497620,135.424088 
	C368.765015,143.088684 382.200134,150.465363 395.400635,158.241684 
	C399.170410,160.462448 402.291718,160.551682 406.037994,158.431656 
	C413.962585,153.947052 422.068573,149.783920 430.073456,145.439804 
	C438.883881,140.658539 447.664398,135.822113 457.022644,130.700684 
	C443.630402,123.358749 431.175171,115.848228 418.120972,109.586319 
	C407.368835,104.428650 397.319000,98.079483 386.697601,92.723396 
	C375.513672,87.083626 364.579407,80.928398 353.505920,75.053055 
	C346.205231,71.179474 338.921875,67.275742 331.588623,63.454521 
	C320.767212,57.815662 310.179413,51.729317 299.476776,45.861553 
	C292.125916,41.831409 284.762939,37.822834 277.379456,33.852886 
	C271.128021,30.491629 264.834351,27.209116 258.569916,23.871899 
	C256.362701,22.696054 254.415039,22.634005 252.020844,23.914101 
	C244.583588,27.890537 237.053436,31.658112 229.781570,35.976555 
	C222.165268,40.499550 214.092300,44.253548 205.624573,48.652428 
	C209.400284,50.920528 212.563385,52.914978 215.813309,54.756191 
	C228.363602,61.866421 241.069809,68.760979 253.405319,76.175568 
	C266.102234,83.807396 279.457123,90.322144 292.363495,99.017441 
M346.985931,153.617294 
	C336.222260,148.069122 325.927063,141.685318 315.342316,135.831223 
	C304.059784,129.591171 293.281860,122.510223 281.764801,116.637535 
	C271.662964,111.486511 262.213654,105.065834 252.403122,99.330826 
	C242.114304,93.316200 231.726410,87.471298 221.404129,81.513565 
	C210.110123,74.994972 198.854614,68.409538 187.548187,61.912689 
	C185.829422,60.925060 184.028275,60.132618 181.907623,61.313423 
	C177.880508,63.555752 173.737183,65.588097 169.676071,67.770836 
	C161.964996,71.915321 154.312195,76.169601 146.564713,80.244308 
	C143.239059,81.993416 140.068237,83.889496 136.665421,86.683044 
	C140.623199,89.070747 144.079453,91.196259 147.574524,93.255905 
	C154.575134,97.381393 161.896881,101.008827 168.774124,105.263138 
	C180.577011,112.564484 192.721375,119.246994 204.677963,126.262520 
	C214.377457,131.953690 224.313660,137.240524 234.036423,142.893234 
	C246.196960,149.963257 258.194122,157.314514 270.360443,164.374344 
	C280.206940,170.088028 290.252808,175.457703 300.111450,181.150986 
	C309.127594,186.357727 317.984711,191.839203 326.972321,197.096359 
	C329.183167,198.389557 331.384674,198.654404 333.963165,197.099518 
	C339.331146,193.862549 344.991699,191.112839 350.511841,188.125626 
	C359.776703,183.111938 369.025787,178.069153 379.067169,172.611588 
	C375.037201,170.207962 371.561279,168.148300 368.098572,166.066650 
	C361.304138,161.982117 353.990967,158.778763 346.985931,153.617294 
M386.598053,244.317017 
	C386.598053,227.290131 386.598053,210.263245 386.598053,192.785431 
	C384.922638,193.383286 383.946625,193.598892 383.099213,194.053986 
	C371.896423,200.070358 360.930237,206.588989 349.425598,211.954376 
	C344.079102,214.447815 343.150269,217.612503 343.282776,222.737503 
	C343.579803,234.225845 343.348969,245.727264 343.415924,257.222870 
	C343.424866,258.755188 342.797699,260.491241 344.667603,262.438446 
	C347.715698,255.107834 350.892181,248.245956 353.440063,241.158112 
	C357.236420,230.597031 365.364258,228.359467 373.298859,236.037292 
	C376.370880,239.009903 379.350525,242.079163 382.461090,245.010132 
	C383.707184,246.184265 385.199707,248.062347 386.598053,244.317017 
z"/>
<path fill="#000000" opacity="1.000000" stroke="none" 
	d="
M207.436249,266.390656 
	C210.423904,268.769562 211.458954,271.546539 211.403610,274.963043 
	C211.287537,282.127258 211.435349,289.295502 211.340225,296.460297 
	C211.265701,302.072571 208.708496,304.493530 203.347321,304.329498 
	C198.841980,304.191681 196.699600,301.665466 196.646576,296.345856 
	C196.608353,292.513184 196.387482,288.660400 196.692062,284.852051 
	C197.042694,280.467957 194.832932,278.039307 191.287399,276.247040 
	C174.161560,267.589966 157.034424,258.935303 139.927612,250.240723 
	C124.302345,242.299194 108.672577,234.365280 93.119377,226.284454 
	C90.355087,224.848221 87.918556,222.791245 84.769493,222.396179 
	C82.741913,223.561218 83.416061,225.421799 83.408806,226.967468 
	C83.352432,238.966156 83.493324,250.967026 83.306969,262.963104 
	C83.252022,266.499786 84.606483,268.220123 87.709961,269.792206 
	C101.873390,276.966675 115.839722,284.528992 129.959869,291.790558 
	C143.930756,298.975342 158.025116,305.919617 172.020401,313.057434 
	C184.116028,319.226410 196.149612,325.517120 208.208267,331.758575 
	C210.822006,333.111389 211.267410,335.725372 211.278122,338.146576 
	C211.377640,360.643890 211.458603,383.143005 211.254242,405.638916 
	C211.198303,411.799286 205.738907,414.596771 199.553162,411.531097 
	C187.117950,405.368195 174.904709,398.757935 162.589706,392.351837 
	C152.186752,386.940399 141.596054,381.862213 131.404190,376.079987 
	C119.750191,369.468323 107.426384,364.195709 95.802681,357.505493 
	C89.367195,353.801483 82.629181,350.494690 75.948227,347.185211 
	C70.956299,344.712433 68.285744,341.569885 68.548599,335.741425 
	C68.886139,328.257141 68.596939,320.746094 68.653282,313.247131 
	C68.695686,307.604889 72.058380,303.615662 76.584946,303.670380 
	C81.280350,303.727112 85.204636,307.959686 85.333870,313.384216 
	C85.464836,318.880768 85.513153,324.387207 85.328453,329.880249 
	C85.224113,332.983826 86.499863,334.927032 89.121849,336.263580 
	C108.287567,346.033325 127.691452,355.370880 146.530212,365.735382 
	C160.257477,373.287659 174.705231,379.447998 188.055542,387.705109 
	C190.363281,389.132416 193.223785,389.665955 196.633240,390.904541 
	C196.633240,383.725891 196.634796,377.275665 196.632812,370.825470 
	C196.630463,363.159485 196.577759,355.493042 196.646088,347.827698 
	C196.670685,345.066620 195.907501,342.903564 193.206284,341.785492 
	C179.123260,335.956421 165.876984,328.365662 152.389603,321.397827 
	C133.013596,311.387848 113.538834,301.520905 94.339294,291.142181 
	C87.373512,287.376648 80.263222,283.749512 73.058334,280.387817 
	C69.390923,278.676636 67.521545,276.235382 67.554977,271.902344 
	C67.715691,251.072052 67.765327,230.238159 67.512276,209.409698 
	C67.459938,205.101929 69.330399,202.162613 72.392624,200.286591 
	C75.187111,198.574661 78.145584,200.018219 81.120796,201.743500 
	C87.845421,205.642975 95.103340,208.613876 101.894249,212.409882 
	C115.910484,220.244736 130.581528,226.785294 144.640579,234.555328 
	C157.966965,241.920441 171.826660,248.319107 185.435043,255.176056 
	C192.670929,258.822021 199.411987,263.445526 207.436249,266.390656 
z"/>
</svg>